<?xml version="1.0" encoding="UTF-8" standalone="no"?>
<!-- Created with Inkscape (http://www.inkscape.org/) -->

<svg
   width="275.86404"
   height="340.8891"
   viewBox="0 0 275.86404 340.8891"
   version="1.1"
   id="svg1"
   inkscape:version="1.3.2 (091e20e, 2023-11-25, custom)"
   sodipodi:docname="Busqueda.svg"
   xml:space="preserve"
   inkscape:export-filename="Busqueda.png"
   inkscape:export-xdpi="96"
   inkscape:export-ydpi="96"
   xmlns:inkscape="http://www.inkscape.org/namespaces/inkscape"
   xmlns:sodipodi="http://sodipodi.sourceforge.net/DTD/sodipodi-0.dtd"
   xmlns="http://www.w3.org/2000/svg"
   xmlns:svg="http://www.w3.org/2000/svg"><sodipodi:namedview
     id="namedview1"
     pagecolor="#ffffff"
     bordercolor="#000000"
     borderopacity="0.25"
     inkscape:showpageshadow="2"
     inkscape:pageopacity="0.0"
     inkscape:pagecheckerboard="0"
     inkscape:deskcolor="#d1d1d1"
     inkscape:document-units="px"
     inkscape:zoom="0.35885417"
     inkscape:cx="955.82003"
     inkscape:cy="700.8418"
     inkscape:window-width="1920"
     inkscape:window-height="1057"
     inkscape:window-x="-8"
     inkscape:window-y="-8"
     inkscape:window-maximized="1"
     inkscape:current-layer="layer4" /><defs
     id="defs1" /><g
     inkscape:groupmode="layer"
     id="layer4"
     inkscape:label="Capa 3"
     transform="translate(-461.17563,-550.28448)"><rect
       style="fill:#002f57;fill-opacity:1;stroke:none"
       id="rect7-0"
       width="275.86401"
       height="340.8891"
       x="461.17563"
       y="550.28448"
       rx="28.4" /><path
       style="fill:#e0ecff;fill-opacity:1;stroke:none"
       id="path11-67"
       d="m 520.25297,677.63458 c 0.65162,-5.22833 1.28882,-10.45712 1.99538,-15.67853 1.0701,-7.4165 2.42035,-14.78812 3.55912,-22.19375 0.11533,-0.63786 0.19049,-1.28429 0.34599,-1.91356 0.0731,-0.29578 -0.0433,0.60903 -0.0977,0.90881 -0.0674,0.37139 -0.43053,0.76019 -0.26709,1.10044 0.42608,0.88703 1.28878,1.48906 1.88647,2.27082 1.67251,2.18761 3.37579,4.78867 4.90726,7.05625 4.72336,7.17543 9.24357,14.48159 13.92304,21.6855 2.37571,3.48778 4.71262,7.02194 7.36959,10.30602 0.22475,0.23257 0.38793,0.5473 0.67425,0.69771 2.26507,1.18991 4.74474,1.06204 7.2217,1.08608 1.88889,0.0183 4.86318,-0.0163 6.71038,-0.0319 7.80342,-0.0929 15.6072,-0.14767 23.41107,-0.18491 5.06943,-0.20421 10.0296,0.65067 14.96945,1.65139 3.45033,0.73016 6.89356,1.48354 10.31415,2.34289 2.75866,0.76827 5.52744,1.49744 8.35089,1.98405 1.88126,0.21126 3.7153,0.68731 5.57335,1.03226 2.41965,0.68881 4.00018,-1.61007 5.23767,-3.18726 0.92164,-1.17464 1.73802,-2.42821 2.61492,-3.63662 4.30434,-5.93153 2.67823,-3.73856 7.54662,-9.8962 3.87403,-4.64269 8.00834,-9.06674 12.37693,-13.24705 0.86095,-0.82384 3.48616,-3.53767 5.08242,-3.99941 0.30613,-0.0886 0.57205,0.28104 0.85808,0.42155 0.42507,1.17532 1.08173,2.25149 1.53021,3.41569 0.92486,2.40084 2.11044,6.36683 2.80887,8.75866 1.36358,4.66963 1.60075,5.69369 2.82513,10.34415 1.7144,6.20201 3.0442,12.52576 5.2531,18.57891 1.8402,4.39308 4.1567,8.60698 6.7399,12.60677 1.7329,2.7497 3.662,5.3724 5.4075,8.11327 1.4108,2.2153 2.1621,3.57691 3.5017,5.89361 1.9411,3.33207 3.6838,6.76582 5.2939,10.26772 0.6213,1.35112 2.1522,4.70858 2.644,6.14585 0.3873,1.13182 0.6515,2.30206 0.9773,3.45308 1.6068,7.451 2.2121,15.1674 1.596,22.77533 -0.1412,1.74346 -0.4036,3.47498 -0.6054,5.21247 -1.0974,6.72963 -2.6971,13.38583 -5.1399,19.75985 -1.265,3.30099 -2.2579,5.38025 -3.6998,8.57179 -1.6275,3.46166 -3.3317,6.89494 -5.5151,10.04701 -2.0093,2.90069 -4.3464,5.48096 -6.7703,8.03125 -4.794,4.98498 -10.2361,8.87321 -16.41989,11.99034 -1.93741,0.97661 -3.94828,1.8001 -5.92241,2.70015 -11.04765,4.5765 -22.68146,7.65275 -34.54186,9.17408 -2.50073,0.32077 -5.01589,0.51661 -7.52383,0.77492 -11.68495,0.903 -23.42749,1.35021 -35.13743,0.66451 -1.80832,-0.10589 -3.61204,-0.27951 -5.41806,-0.41926 -7.93865,-0.73243 -15.69673,-2.61342 -23.15776,-5.39864 -1.47776,-0.55165 -2.92829,-1.17368 -4.39243,-1.76052 -6.27051,-2.67076 -12.32983,-5.82218 -18.12153,-9.41485 -3.06615,-1.90197 -5.76852,-3.78158 -8.75323,-5.80772 -8.01435,-5.51798 -15.25761,-12.04476 -22.34026,-18.68938 -4.87508,-4.66768 -8.95213,-9.9636 -12.43225,-15.72634 -2.07459,-3.49681 -3.6967,-7.25479 -4.79705,-11.17143 -0.82488,-2.93611 -0.98553,-4.29073 -1.52265,-7.32075 -1.1573,-8.20656 -1.09237,-16.52051 -0.89267,-24.7862 0.29918,-6.22915 0.17713,-12.47776 0.56714,-18.70148 0.16868,-3.82438 1.1559,-7.5242 2.72716,-10.99834 1.86407,-3.2456 4.39259,-6.02028 6.85952,-8.80775 2.26114,-2.45705 4.59783,-4.8418 6.90005,-7.26021 1.65825,-1.73594 3.5181,-3.24561 5.46097,-4.64745 1.65569,-1.14767 3.32892,-2.25773 4.83428,-3.60169 1.26964,-1.14956 2.32568,-2.47896 3.31619,-3.8678 0.9729,-1.39496 2.26407,-2.51091 3.4984,-3.66288 0.62073,-0.63134 1.31573,-1.0054 2.17709,-1.14309 0.48576,-0.0486 0.23622,-0.0287 0.74874,-0.058 2.66721,-0.16854 2.42885,-3.94055 -0.23836,-3.772 v 0 c -0.79148,0.0533 -0.38952,0.0157 -1.20565,0.11498 -1.55433,0.31109 -2.9226,0.96727 -4.0618,2.09614 -1.41765,1.32554 -2.88366,2.62313 -3.99598,4.2309 -0.8306,1.16564 -1.70176,2.28929 -2.76885,3.25413 -1.39031,1.26903 -2.992,2.25361 -4.5184,3.34639 -2.12809,1.54121 -4.16712,3.199 -5.98412,5.10442 -2.33375,2.45155 -4.70286,4.86866 -6.99287,7.36135 -2.71858,3.07185 -5.49969,6.14358 -7.47825,9.76695 -1.73342,3.89851 -2.86372,8.02689 -3.05042,12.31031 -0.38421,6.272 -0.28124,12.56671 -0.57327,18.84403 -0.20497,8.518 -0.26232,17.08576 0.95021,25.54047 0.59126,3.30061 0.7424,4.62424 1.65068,7.8307 1.18722,4.19115 2.93668,8.21012 5.15617,11.95478 1.44176,2.37887 1.74823,2.98262 3.38437,5.27594 2.87975,4.03644 6.15587,7.78214 9.69583,11.25047 7.22778,6.77933 14.62332,13.43316 22.80352,19.06009 3.09188,2.09816 5.77019,3.96234 8.94851,5.9317 5.95874,3.6922 12.19324,6.92947 18.64425,9.67248 1.52045,0.60784 3.02686,1.25206 4.56136,1.82351 7.76558,2.89189 15.84289,4.83531 24.10259,5.59512 1.85064,0.1424 3.69895,0.31921 5.55191,0.4272 11.89181,0.69307 23.8168,0.24022 35.68281,-0.68127 2.57214,-0.26661 5.15174,-0.46911 7.71643,-0.79984 12.20245,-1.57352 24.17004,-4.7507 35.53228,-9.47134 2.06928,-0.94852 4.17678,-1.81775 6.20784,-2.84556 6.47428,-3.2763 12.28298,-7.44973 17.30528,-12.6813 2.3093,-2.4394 2.817,-2.86876 4.9205,-5.52849 3.2913,-4.16163 5.9007,-8.75776 8.0672,-13.59538 1.4913,-3.30465 2.5121,-5.44294 3.8187,-8.86753 2.5343,-6.64252 4.2034,-13.57461 5.3311,-20.58683 0.2088,-1.82668 0.4815,-3.64719 0.6266,-5.48004 0.6343,-8.01438 -0.012,-16.13979 -1.7385,-23.98123 -0.3712,-1.28184 -0.6795,-2.58359 -1.1135,-3.84553 -0.5063,-1.47214 -2.0749,-4.91825 -2.7194,-6.31759 -1.6576,-3.59907 -3.4487,-7.12957 -5.4441,-10.55515 -1.4277,-2.46714 -2.1266,-3.74003 -3.6289,-6.09829 -1.7368,-2.72619 -3.6552,-5.33548 -5.3794,-8.07046 -2.44,-3.75696 -4.6078,-7.72983 -6.3631,-11.85127 -2.1795,-5.93818 -3.4458,-12.1603 -5.1475,-18.24259 -1.353,-5.13658 -2.6905,-10.28922 -4.3377,-15.34202 -0.61445,-1.88476 -1.89983,-6.07291 -3.35409,-7.79121 -0.7762,-0.91715 -1.9072,-1.46192 -2.86079,-2.19287 -1.04079,0.0467 -2.12967,-0.17604 -3.12236,0.14016 -1.7542,0.55874 -4.64068,3.46539 -5.74193,4.5201 -4.47803,4.28876 -8.7156,8.82746 -12.68497,13.59129 -1.41291,1.78854 -2.85677,3.55307 -4.23874,5.36562 -1.93117,2.53285 -3.98013,5.49459 -5.87319,8.10576 -0.41035,0.56602 -0.99082,1.03451 -1.25104,1.68339 -0.0707,0.17639 0.59216,0.29762 0.42236,0.38297 -0.24641,0.12387 -0.53677,-0.12703 -0.80515,-0.19054 -1.87486,-0.34617 -3.72493,-0.82974 -5.62321,-1.04115 -2.72959,-0.46462 -5.40098,-1.18918 -8.06841,-1.92446 -3.47717,-0.87329 -6.97721,-1.63984 -10.48465,-2.38155 -5.19228,-1.05143 -10.41134,-1.92929 -15.73776,-1.72656 -7.80856,0.0373 -15.61704,0.092 -23.42516,0.185 -3.03922,0.0259 -6.08675,0.097 -9.12531,-0.0159 -0.55676,-0.0207 -1.11138,-0.13159 -1.66799,-0.10731 -0.15228,0.007 -0.26512,0.23821 -0.41216,0.19806 -0.19629,-0.0536 -0.28942,-0.28607 -0.43414,-0.42911 -2.58372,-3.17161 -4.822,-6.615 -7.13469,-9.98314 -4.69214,-7.22287 -9.22311,-14.54925 -13.96084,-21.74256 -1.38427,-2.04792 -3.60723,-5.42529 -5.16694,-7.39717 -1.42939,-1.80712 -3.33278,-4.47649 -6.14448,-4.31322 -0.8919,0.0518 -1.50414,1.05563 -1.96866,1.81878 -0.35406,0.58167 -0.24146,1.34034 -0.36219,2.01051 -1.14175,7.42816 -2.49798,14.82188 -3.56887,22.26126 -0.70821,5.23408 -1.34712,10.47554 -2.00033,15.71654 -0.33149,2.65189 3.41885,3.12068 3.75034,0.46879 z" /><path
       style="fill:#e0ecff;fill-opacity:1;stroke:none"
       id="path14-3"
       d="m 557.74531,708.40647 c -3.28938,1.14219 -6.65228,2.14253 -9.81614,3.61543 -0.79109,0.36828 -1.55591,0.79054 -2.33387,1.18581 -3.30502,1.89714 -6.45836,4.31123 -8.58089,7.53363 -0.37531,0.56978 -0.67128,1.18803 -1.00692,1.78205 -1.03313,2.30245 -1.75275,4.74492 -1.42524,7.29509 0.23428,1.82432 0.60865,2.42277 1.29994,4.13643 2.73107,5.02556 6.25136,7.28485 11.26816,9.66744 3.04255,1.14279 6.93409,2.3188 10.22647,1.83002 0.80307,-0.11922 1.57546,-0.39298 2.3632,-0.58948 0.77464,-0.43543 1.60706,-0.78116 2.32393,-1.3063 2.23692,-1.63866 3.57514,-4.00174 3.9776,-6.73111 0.30935,-2.09794 -7.3e-4,-3.15938 -0.30839,-5.20172 -0.80512,-2.9956 -1.89367,-6.10902 -4.19153,-8.31067 -0.29554,-0.28317 -0.63299,-0.51908 -0.94949,-0.77862 -0.34929,-0.19537 -0.67219,-0.44813 -1.04786,-0.58611 -2.93803,-1.07908 -5.90491,0.90836 -8.33696,2.31561 -3.49132,2.49436 -6.53006,5.6811 -8.66292,9.42426 -0.37728,0.66212 -0.68131,1.36337 -1.02196,2.04506 -0.7669,1.98775 -1.28914,4.096 0.0128,6.03007 0.37806,0.56162 0.88936,1.0683 1.49053,1.37966 2.00556,1.03872 2.81087,0.49345 4.89633,0.0799 0.74259,-0.36198 1.53653,-0.63352 2.22776,-1.08593 3.21994,-2.10747 5.07187,-5.61494 5.81034,-9.31509 0.17663,-0.88503 0.20023,-1.79383 0.30034,-2.69075 -0.0349,-3.23142 -0.9922,-6.31031 -3.41318,-8.557 -1.24031,-1.15103 -2.05812,-1.46086 -3.51368,-2.22064 -0.56206,-0.21024 -1.09945,-0.50478 -1.68618,-0.63072 -1.64779,-0.35369 -4.20715,-0.2227 -5.55619,0.9755 -1.5162,1.34667 -1.66311,2.32703 -2.34482,4.10135 -0.74619,3.27125 -1.30647,7.26098 1.14201,10.02932 0.54531,0.61654 1.27623,1.0398 1.91434,1.5597 0.73283,0.32209 1.42885,0.74616 2.19847,0.96627 3.00472,0.85933 6.6553,0.27174 9.05178,-1.80784 0.65286,-0.56653 1.13551,-1.3036 1.70327,-1.95541 0.41289,-0.81402 0.89253,-1.59749 1.23867,-2.44206 1.10358,-2.69269 1.84716,-6.71737 1.97265,-9.6479 0.0299,-0.69808 -0.0289,-1.39714 -0.0434,-2.09571 -0.29007,-2.48242 -1.37795,-5.06542 -4.26411,-5.27692 -1.5848,-0.11614 -2.50822,0.51171 -3.86534,1.13566 -3.37962,2.42839 -5.39274,5.78252 -6.47364,9.76899 -0.16569,0.61111 -0.25559,1.24029 -0.38339,1.86043 -0.0228,0.57473 -0.12692,1.152 -0.0683,1.72418 0.29994,2.92703 2.46407,4.74342 5.07127,5.73522 0.69193,0.26322 1.42121,0.41513 2.13182,0.6227 3.19069,0.60973 7.07563,1.37761 9.93957,-0.71242 0.57797,-0.4218 1.00756,-1.01623 1.51134,-1.52434 0.35407,-0.6938 0.80038,-1.3478 1.06221,-2.08141 1.14306,-3.20264 0.86042,-7.23364 -0.51058,-10.32026 -0.38885,-0.87546 -0.97069,-1.65176 -1.45604,-2.47764 -0.5637,-0.65129 -1.04026,-1.38967 -1.69111,-1.95388 -2.46755,-2.13906 -5.96317,-3.02659 -9.1514,-2.40163 -0.64819,0.12706 -1.25982,0.39751 -1.88972,0.59626 -0.57095,0.34515 -1.19133,0.61935 -1.71283,1.03545 -2.28639,1.82429 -3.54415,4.75321 -4.10562,7.55031 -0.16231,0.80855 -0.21388,1.63543 -0.32082,2.45315 -0.11411,3.61562 0.4739,7.4435 2.93671,10.27408 1.61059,1.85109 2.32345,1.94316 4.4379,2.97186 2.9381,0.82022 5.96095,0.76525 8.48592,-1.14613 1.20415,-0.91152 1.53986,-1.57357 2.36629,-2.75702 1.07348,-2.08177 1.70556,-4.34101 0.67567,-6.59004 -0.63896,-1.39531 -1.43346,-1.9115 -2.53235,-2.90935 -1.61746,-1.08485 -3.39225,-1.9054 -5.24241,-2.50569 -1.05107,-0.34102 -2.21611,-0.72321 -3.32871,-0.19852 -0.6946,0.32756 -1.15616,1.01111 -1.73425,1.51666 -0.20362,0.68139 -0.51397,1.33963 -0.61088,2.04416 -0.36015,2.61833 0.89728,5.91161 2.01965,8.24136 0.84297,1.37585 0.38976,0.7358 1.34664,1.92924 1.70263,2.05997 4.61586,-0.34792 2.91323,-2.40789 v 0 c -0.59067,-0.6766 -0.2942,-0.29114 -0.86218,-1.17682 -1.02004,-2.06367 -1.59144,-4.0267 -1.81354,-6.32196 -0.1549,-0.0432 -0.35491,-0.0121 -0.4647,-0.12956 -0.0609,-0.0651 0.0316,-0.24244 0.12064,-0.23866 0.38354,0.0163 0.74839,0.17488 1.1143,0.29099 1.41749,0.44978 2.78437,1.06239 4.06725,1.81316 0.28049,0.2239 1.69725,1.34875 1.79358,1.78429 0.19887,0.89918 -0.27909,1.94789 -0.59626,2.74655 -1.67388,2.635 -3.01328,3.12849 -6.15277,2.57499 -1.38089,-0.55968 -1.79961,-0.5736 -2.90236,-1.69281 -1.96869,-1.99809 -2.30836,-4.99148 -2.28612,-7.65145 0.28614,-2.52937 0.7559,-5.4376 2.72089,-7.28686 0.26352,-0.24799 0.58737,-0.42281 0.88105,-0.63422 0.36987,-0.14032 0.72617,-0.32367 1.1096,-0.42098 1.84181,-0.46742 4.38224,-0.0622 5.88739,1.15202 0.50046,0.40372 0.8665,0.95025 1.29975,1.42537 0.3592,0.55073 0.79437,1.05881 1.07761,1.65221 1.26581,2.65195 1.3647,6.02237 0.23979,8.72149 -0.17818,0.24918 -0.31459,0.53432 -0.53453,0.74754 -1.66645,1.61555 -5.11085,0.68633 -7.08253,0.38059 -1.27364,-0.34157 -4.17164,-0.93886 -4.44985,-2.63249 -0.058,-0.35327 -0.002,-0.716 -0.003,-1.074 0.65236,-3.43512 2.04542,-6.71978 4.81898,-8.97605 0.49832,-0.27535 1.0247,-0.50255 1.50291,-0.8115 0.0808,-0.0522 0.11213,-0.18032 0.20577,-0.20229 0.79847,-0.18739 0.91284,1.67369 0.97403,1.87232 0.0208,0.53073 0.0834,1.06147 0.0625,1.5922 -0.0256,0.64881 -0.11943,1.2934 -0.20172,1.93748 -0.3574,2.79759 -0.88093,5.62192 -2.17613,8.15441 -0.29645,0.4046 -0.5382,0.85565 -0.88936,1.2138 -1.34655,1.37335 -3.66319,1.84422 -5.50277,1.44713 -0.48127,-0.10389 -0.92458,-0.33884 -1.38687,-0.50826 -0.33673,-0.20195 -0.71454,-0.34746 -1.01018,-0.60585 -1.84436,-1.61194 -1.09116,-4.61899 -0.74117,-6.66016 0.14929,-0.4564 0.30906,-0.90951 0.44786,-1.36921 0.0711,-0.23561 0.0427,-0.51251 0.18165,-0.71567 0.42117,-0.61585 1.76071,-0.84711 2.41993,-0.72766 0.44215,0.0801 0.84717,0.29999 1.27075,0.44998 3.38833,1.65901 4.59458,3.12978 4.8794,7.02767 -0.0601,0.68504 -0.0575,1.37849 -0.18033,2.05511 -0.482,2.65642 -1.6399,5.33595 -3.88675,6.9644 -0.44911,0.32551 -0.9745,0.53006 -1.46176,0.79509 -0.27883,0.11438 -2.11781,1.05186 -2.42215,0.24217 -0.3096,-0.82367 0.13592,-1.64551 0.3623,-2.40086 0.27339,-0.56226 0.51414,-1.1416 0.82017,-1.6868 1.81377,-3.23134 4.41091,-5.99152 7.37506,-8.1879 1.28024,-0.74815 2.50686,-1.46241 3.89647,-1.98254 0.25826,-0.0967 0.51714,-0.30472 0.78787,-0.25229 0.16237,0.0315 0.30264,0.13349 0.45396,0.20024 2.15328,1.60042 3.04598,4.23851 3.75681,6.72894 0.55043,3.13278 0.82591,5.8254 -1.87648,8.08619 -0.42015,0.3515 -0.91552,0.60179 -1.37328,0.90269 -0.50498,0.15356 -0.99497,0.37005 -1.51495,0.46068 -2.71837,0.47376 -5.94886,-0.5738 -8.4722,-1.47036 -4.02941,-1.89287 -7.12617,-3.70055 -9.393,-7.70143 -0.21973,-0.50742 -0.47526,-1.0008 -0.65917,-1.52227 -0.79987,-2.26798 -0.35072,-4.48325 0.60172,-6.62817 0.24032,-0.44693 0.44711,-0.91358 0.72096,-1.34078 1.7723,-2.7647 4.48026,-4.81075 7.27803,-6.43833 0.6964,-0.35725 1.38031,-0.73999 2.08921,-1.07176 3.09525,-1.44855 6.39482,-2.41321 9.61377,-3.53652 2.51683,-0.89887 1.24564,-4.45821 -1.2712,-3.55934 z" /><path
       style="fill:#e0ecff;fill-opacity:1;stroke:none"
       id="path15-9"
       d="m 629.30804,723.71421 c 3.10553,0.79726 6.07717,1.9624 8.95941,3.35311 2.57589,1.25362 4.55051,3.33048 5.26359,6.17225 0.54187,2.15948 0.25686,3.14211 0.068,5.37693 -0.27772,1.03421 -0.4781,2.09237 -0.83316,3.10265 -1.19214,3.39212 -3.77804,7.59409 -6.90035,9.54664 -0.63973,0.40006 -1.38043,0.60959 -2.07065,0.91439 -0.76551,-0.008 -1.53834,0.082 -2.29653,-0.0239 -0.9393,-0.13123 -1.88519,-0.32158 -2.76213,-0.68283 -3.24004,-1.33471 -6.04587,-3.97425 -8.22904,-6.64434 -0.67374,-0.824 -1.23092,-1.73679 -1.84638,-2.60518 -1.59651,-2.54112 -2.6636,-4.93135 -1.42591,-7.87609 0.5228,-1.24386 1.35657,-2.11288 2.19221,-3.14852 1.72857,-1.64963 3.64484,-3.04736 5.71979,-4.22644 0.69689,-0.39601 3.02879,-1.63316 3.88344,-1.8617 0.37745,-0.10093 0.78139,-0.008 1.17209,-0.0117 0.20427,0.13479 0.44309,0.22804 0.6128,0.40437 0.17232,0.17905 0.27926,0.41304 0.38864,0.63616 0.94101,1.91948 0.93954,3.97564 0.9251,6.06452 -0.2466,2.97453 -0.80691,6.06097 -2.17414,8.74542 0.82428,-1.45162 -0.45694,0.4508 1.94078,-0.80158 0.1656,-0.0865 -0.0851,-0.36435 -0.1434,-0.54184 -0.14637,-0.44527 -0.33,-0.87794 -0.4703,-1.32517 -0.44713,-1.42529 -0.51833,-1.90709 -0.8421,-3.38017 -0.0655,-1.22114 -0.72038,-2.71362 -0.003,-3.8695 0.40614,-0.65398 1.30953,-1.01142 1.95993,-1.32009 0.28371,-0.0477 1.10754,-0.25416 1.41382,-0.0506 0.14331,0.0952 0.0785,0.34046 0.16519,0.48909 0.21182,0.36308 0.51883,0.66577 0.72294,1.03323 0.79973,1.43967 0.85741,1.98936 1.33965,3.61554 0.60781,3.8821 0.18052,7.84829 -1.35163,11.46524 -0.39079,0.38819 -0.67203,0.88713 -1.32314,0.80379 -0.24199,-0.031 -0.43011,-0.2307 -0.64991,-0.33657 -0.40861,-0.19683 -0.84103,-0.34641 -1.23488,-0.57134 -1.05802,-0.60424 -1.71154,-1.20014 -2.6562,-1.96647 -0.49224,-0.53413 -1.44649,-1.49014 -1.80248,-2.16771 -0.62637,-1.19221 -0.50728,-2.82312 -0.22396,-4.07832 0.46286,-1.26372 1.36643,-2.10259 2.70664,-2.25726 1.1189,0.91073 1.44261,2.27772 1.73507,3.62579 0.0648,0.4943 0.18836,0.98441 0.19437,1.48291 0.0128,1.06142 -0.49191,4.03045 -1.97433,4.02315 -0.23158,-0.001 -0.44549,-0.12674 -0.66824,-0.19011 -3.55359,-2.75829 -5.58393,-6.15629 -7.33933,-10.21246 -0.0392,-0.64637 -1.11664,-2.28113 -0.53465,-3.0096 0.009,-0.0114 0.30803,0.16216 0.49687,0.14127 0.28497,-0.0315 0.55993,-0.12362 0.83989,-0.18543 2.0505,-0.33071 4.72513,-0.58218 6.71569,0.13835 0.34334,0.12428 0.65004,0.33279 0.97506,0.49919 1.25362,0.79589 2.51108,1.87008 3.23387,3.20261 0.3425,0.63143 0.58703,1.77924 0.75409,2.42117 0.6032,2.7515 0.5711,5.6173 -0.34154,8.30159 -0.15194,0.44687 -0.36873,0.86899 -0.5531,1.30349 -0.19771,0.28663 -0.27768,0.71244 -0.59313,0.85988 -0.16238,0.0759 -0.16233,-0.34328 -0.31649,-0.43471 -2.27207,-1.34761 0.64189,1.0949 -1.96454,-0.93132 -1.05687,-0.8216 -1.14078,-1.14942 -1.88779,-2.26787 -1.09001,-2.8581 -1.00871,-5.61504 0.20387,-8.4003 1.04202,-1.33944 2.109,-1.61373 3.71869,-1.45488 0.22565,0.0514 0.4513,0.10281 0.67694,0.15422 2.61978,0.52837 3.367,-3.17656 0.74723,-3.70492 v 0 c -0.3949,-0.0738 -0.7898,-0.14749 -1.18471,-0.22124 -2.55719,-0.11473 -4.61658,0.29074 -6.41349,2.31553 -0.39819,0.44868 -0.69233,0.97986 -1.0385,1.46979 -0.20974,0.52744 -0.46054,1.04035 -0.62924,1.58231 -1.10514,3.55047 -0.72108,7.11918 0.84528,10.45852 1.1943,1.59871 1.52945,2.35848 3.25727,3.44222 2.35009,1.47406 4.81701,1.83682 7.16054,0.043 0.45919,-0.35148 0.60949,-0.9829 0.91423,-1.47436 0.23721,-0.59199 0.51458,-1.16944 0.71163,-1.77598 1.08137,-3.32856 1.0994,-6.8708 0.33193,-10.26404 -0.17956,-0.63162 -0.31075,-1.27903 -0.53867,-1.89484 -0.99246,-2.68155 -3.06046,-4.75105 -5.50492,-6.15891 -0.57906,-0.25267 -1.1363,-0.56284 -1.73718,-0.758 -2.67308,-0.86816 -5.89289,-0.5826 -8.60391,-0.0781 -1.34038,0.43953 -2.27085,0.54743 -3.25429,1.70836 -1.61848,1.9106 -0.64624,4.45356 0.0483,6.48297 1.46334,3.33729 3.1412,6.58445 5.74321,9.20369 0.72967,0.73449 1.47925,1.47519 2.3603,2.01894 0.90626,0.5593 1.95962,0.83454 2.93943,1.25182 0.81652,-0.12917 1.68702,-0.0682 2.44954,-0.38751 2.89804,-1.21344 3.78292,-4.93308 3.69888,-7.72964 -0.0185,-0.61663 -0.17271,-1.22167 -0.25906,-1.8325 -0.13707,-0.55706 -0.23469,-1.12534 -0.41121,-1.67118 -0.64614,-1.998 -1.97938,-4.02251 -4.11695,-4.63153 -0.52578,-0.1498 -1.08773,-0.11119 -1.63159,-0.16679 -0.41586,0.0976 -0.84353,0.15425 -1.24757,0.29291 -2.28194,0.78313 -3.7355,2.73845 -4.42884,4.97152 -0.0896,0.53712 -0.22921,1.06826 -0.26885,1.61136 -0.13603,1.86396 0.26809,3.80601 1.18749,5.43803 0.54015,0.95882 1.72881,2.08485 2.45969,2.84499 2.40329,1.90468 5.2737,4.16149 8.60149,3.30096 1.67881,-0.43412 2.17536,-1.50146 3.11963,-2.74035 0.22508,-0.55777 0.48418,-1.10298 0.67524,-1.6733 1.32941,-3.96825 1.5262,-8.24767 0.79308,-12.34777 -1.0241,-3.21345 -2.09863,-6.74985 -5.78011,-7.80121 -1.00607,-0.28732 -2.31352,0.22599 -3.23643,0.48694 -1.69793,0.94653 -3.07754,1.78514 -3.85285,3.70732 -0.74345,1.84321 -0.30992,3.76897 -0.0306,5.64298 0.42102,1.88492 0.79768,3.88345 1.65164,5.63596 0.27669,0.56782 0.45211,1.27908 0.98437,1.61918 0.7823,0.49989 1.76377,0.81105 2.68839,0.72766 0.55515,-0.0501 0.84835,-0.72325 1.27252,-1.08488 1.55518,-3.24133 2.35391,-6.82822 2.56171,-10.40875 -0.0136,-3.54948 -0.17349,-8.33212 -3.82268,-10.26406 -0.67975,-0.35987 -1.48377,-0.40588 -2.22565,-0.60882 -0.7768,0.10227 -1.57526,0.0979 -2.33039,0.3068 -0.74578,0.20634 -1.4318,0.5898 -2.12833,0.92685 -3.31034,1.60184 -6.35267,3.68331 -8.94808,6.29743 -1.30752,1.70309 -2.15771,2.538 -2.89589,4.60866 -1.43628,4.0289 -0.1558,7.52441 2.03072,10.94957 0.71938,0.99516 1.37202,2.04216 2.15814,2.98549 2.70102,3.24116 6.14258,6.2882 10.17142,7.75299 3.23079,1.17464 4.20826,0.72849 7.49634,0.43201 0.95943,-0.47735 1.98485,-0.84033 2.87829,-1.43205 3.70786,-2.45571 6.75483,-7.3613 8.13322,-11.50001 0.41102,-1.23411 0.62932,-2.52425 0.94399,-3.78637 0.1736,-3.04503 0.5121,-4.16801 -0.35633,-7.10658 -1.08683,-3.67757 -3.73267,-6.44006 -7.1071,-8.10875 -3.09194,-1.4839 -6.27555,-2.73887 -9.60368,-3.59367 -2.57836,-0.70319 -3.57282,2.94316 -0.99446,3.64635 z" /><path
       style="fill:#e0ecff;fill-opacity:1;stroke:none"
       id="path17-9"
       d="m 560.27178,783.01292 c 0.0242,2.49833 -0.0933,5.01569 0.26582,7.49868 0.29042,2.00806 0.65144,3.17801 1.15869,5.12617 0.99509,3.07072 2.42054,6.06741 5.04354,8.07907 1.56673,1.20158 2.45269,1.43681 4.24245,2.18326 2.82408,0.86873 5.92046,1.50022 8.82584,0.55426 1.81749,-0.59174 2.33342,-1.16431 3.83564,-2.28117 3.22432,-3.20693 5.00956,-7.46133 6.93323,-11.50597 1.47844,-2.95798 2.90461,-5.94206 4.38977,-8.8966 -1.09602,0.41941 1.04824,-1.14169 0.64262,-1.06118 -0.76138,0.15111 -1.43477,0.68638 -2.20944,0.73562 -0.31599,0.0201 -0.52595,-0.73813 -0.77746,-0.54577 -0.27818,0.21277 0.083,0.69553 0.12745,1.04292 0.0673,0.52602 0.13847,1.05152 0.2077,1.57729 0.31826,2.73102 0.8161,5.43017 1.76687,8.01788 0.57576,1.56703 0.89354,2.14243 1.6011,3.61407 1.42532,2.4735 3.0604,5.0383 5.44292,6.71421 0.53811,0.37851 1.13519,0.66535 1.70278,0.99803 1.56273,0.61958 3.31971,1.59181 5.07658,1.45984 3.27636,-0.24611 5.46003,-1.95665 8.00139,-3.80136 4.40967,-3.85418 7.25635,-8.49401 9.46128,-13.85194 0.86946,-2.41579 1.52679,-4.91165 1.40286,-7.48953 -0.18289,-2.66627 -3.95356,-2.40761 -3.77066,0.25865 v 0 c 0.22153,1.97558 -0.58351,3.94397 -1.13098,5.80142 -1.86708,4.60826 -4.45746,8.90041 -8.20282,12.23742 -1.3064,0.97773 -3.58354,2.83538 -5.29947,3.09411 -1.25561,0.18931 -2.56279,-0.6083 -3.68401,-1.00208 -0.37053,-0.19547 -0.76429,-0.35213 -1.11159,-0.5864 -1.9779,-1.33425 -3.29684,-3.47304 -4.48485,-5.47601 -1.66457,-3.42956 -2.69923,-6.65373 -3.02422,-10.48176 -0.14032,-1.06549 -0.28285,-4.46463 -1.53041,-4.91808 -2.29978,-0.8359 -2.84494,0.62795 -3.58484,1.96577 -1.49642,2.97948 -2.93651,5.98713 -4.42578,8.97025 -1.66936,3.51048 -3.20396,7.20497 -5.82255,10.132 -0.74309,0.59894 -1.39552,1.23372 -2.30662,1.57885 -2.15312,0.81561 -4.5151,0.24462 -6.63025,-0.35653 -1.57134,-0.61553 -3.2002,-1.22815 -4.3677,-2.5232 -1.31171,-1.45502 -2.05114,-3.38356 -2.6841,-5.19467 -0.41474,-1.57436 -0.81016,-2.89715 -1.05084,-4.50979 -0.35353,-2.36883 -0.22068,-4.77371 -0.25041,-7.15773 0,-2.67253 -3.77953,-2.67253 -3.77953,0 z" /></g></svg>
