<?xml version="1.0" encoding="UTF-8" standalone="no"?>
<!-- Created with Inkscape (http://www.inkscape.org/) -->

<svg
   width="121.57373"
   height="111.52341"
   viewBox="0 0 121.57373 111.52341"
   version="1.1"
   id="svg1"
   inkscape:version="1.3.2 (091e20e, 2023-11-25, custom)"
   sodipodi:docname="Busqueda.svg"
   xml:space="preserve"
   inkscape:export-filename="Busqueda.png"
   inkscape:export-xdpi="96"
   inkscape:export-ydpi="96"
   xmlns:inkscape="http://www.inkscape.org/namespaces/inkscape"
   xmlns:sodipodi="http://sodipodi.sourceforge.net/DTD/sodipodi-0.dtd"
   xmlns="http://www.w3.org/2000/svg"
   xmlns:svg="http://www.w3.org/2000/svg"><sodipodi:namedview
     id="namedview1"
     pagecolor="#ffffff"
     bordercolor="#000000"
     borderopacity="0.25"
     inkscape:showpageshadow="2"
     inkscape:pageopacity="0.0"
     inkscape:pagecheckerboard="0"
     inkscape:deskcolor="#d1d1d1"
     inkscape:document-units="px"
     inkscape:zoom="0.35885417"
     inkscape:cx="955.82003"
     inkscape:cy="700.8418"
     inkscape:window-width="1920"
     inkscape:window-height="1057"
     inkscape:window-x="-8"
     inkscape:window-y="-8"
     inkscape:window-maximized="1"
     inkscape:current-layer="layer4" /><defs
     id="defs1" /><g
     inkscape:groupmode="layer"
     id="layer3"
     inkscape:label="Capa 2"
     style="display:inline"
     transform="translate(-1755.2357,-30.692108)"><ellipse
       style="fill:#e0ecff;fill-opacity:1;stroke:#002e57;stroke-width:2;stroke-linecap:round;stroke-linejoin:round;stroke-miterlimit:11.4;stroke-dasharray:none;stroke-opacity:1;paint-order:normal"
       id="path8"
       cx="1816.0226"
       cy="86.453812"
       rx="59.786865"
       ry="54.761703" /><path
       style="fill:#002e57;fill-opacity:1;stroke:#002e57;stroke-width:2;stroke-linecap:round;stroke-linejoin:round;stroke-miterlimit:11.4;stroke-dasharray:none;stroke-opacity:1;paint-order:normal"
       d="m 1757.852,75.587809 c 0.8753,-1.030685 2.1441,-0.192215 3.1349,-0.522497 0.3484,-0.174165 0.6967,-0.348331 1.045,-0.522496 0.1161,0 0.2357,0.02816 0.3484,0 0.7486,0.363483 0.1925,-0.296405 0.3483,-0.348331 0.2203,-0.07344 0.4764,0.07343 0.6967,0 0.4595,-0.153191 0.5811,-0.290549 1.0449,-0.522496 0.494,-0.246994 1.3331,0.05893 1.9159,-0.174166 0.6762,-0.27048 1.4297,-0.302423 2.09,-0.522496 0.078,-0.02596 0.094,-0.158064 0.1741,-0.174166 0.2277,-0.04554 0.4668,0.03284 0.6967,0 0.5239,-0.07484 1.0512,-0.219261 1.5675,-0.348331 0.8509,-0.212733 3.2997,0 4.3541,0 1.4617,0 3.083,-0.206468 4.5283,0 0.4739,0.0677 0.9194,0.280628 1.3933,0.348331 1.5032,0.214731 3.04,0.365925 4.5283,0.696662 0.7647,0.169926 1.518,0.510107 2.2642,0.696662 0.6985,0.174621 1.4061,0.21155 2.09,0.348331 0.6899,0.137983 1.8127,1.096527 2.6125,0.696662 2.8157,-1.407868 1.1462,-0.521439 3.4833,-2.612482 1.4689,-1.314308 3.0431,-2.532151 4.5283,-3.83164 0.7219,-0.631718 1.4451,-1.40392 2.2641,-1.91582 0.098,-0.06154 0.2555,0.06967 0.3483,0 0.1675,-0.125593 0.2004,-0.374485 0.3484,-0.522497 0.296,-0.296024 0.6966,-0.464441 1.045,-0.696662 0.9879,-0.658593 -0.6311,0.618773 1.2191,-0.174165 0.1924,-0.08246 0.1849,-0.391735 0.3484,-0.522496 0.6007,-0.480592 0.3591,-0.0036 0.8708,-0.174166 0.078,-0.02596 0.092,-0.174165 0.1742,-0.174165 0.01,0 0.1741,5.458352 0.1741,6.095791 0,2.276746 0.8575,4.662365 1.5675,6.792453 0.1808,0.542435 0.5261,1.021739 0.6967,1.567489 1.1545,3.694428 -1.5899,-2.336919 1.045,3.309143 0.8971,1.922538 1.0467,1.219372 3.8316,1.567489 0.8718,0.108969 1.7564,0.150785 2.6125,0.348331 0.6621,0.152797 1.2649,0.501404 1.9158,0.696662 0.5127,0.153801 1.0639,0.167034 1.5675,0.348331 1.9371,0.697353 4.0514,1.677377 5.9216,2.612482 0.3028,0.151389 0.5806,0.348331 0.8708,0.522496 0.2903,0.232221 0.5445,0.518656 0.8709,0.696662 0.3223,0.175822 0.7166,0.184126 1.045,0.348331 1.972,0.985994 3.8439,2.973152 5.3991,4.528302 0.6386,0.638607 1.254,1.301287 1.9158,1.91582 0.5448,0.505894 1.216,0.867612 1.7417,1.393324 0.8382,0.838189 1.3604,1.776981 2.6125,2.089985 0.056,0.01408 -0.032,-0.12586 0,-0.174165 0.322,-0.483048 0.7422,-0.89795 1.0449,-1.393324 1.9683,-3.220816 -0.1696,-0.493032 1.7417,-2.786647 1.8971,-2.27656 3.8242,-4.383728 6.27,-6.095791 2.1851,-1.529636 0.098,0.125187 1.7416,-0.696662 0.1469,-0.07343 0.2322,-0.232221 0.3483,-0.348331 0.2903,-0.11611 0.5743,-0.249467 0.8709,-0.348331 0.2095,-0.06985 2.2138,-0.274833 2.2641,-0.174165 0.052,0.103852 -0.024,0.234798 0,0.348331 0.1505,0.702162 0.354,1.39193 0.5225,2.089985 0.6093,2.524124 1.1163,5.077344 1.3933,7.66328 0.385,1.612098 0.035,3.255994 0.1742,4.876634 0.1101,1.28432 0.3802,2.55049 0.5225,3.83164 0.087,0.78138 -0.2482,1.86796 0,2.61248 0.2003,0.60101 0.8191,0.96969 1.2192,1.39332 0.2941,0.31143 2.2358,2.37765 2.7866,3.13498 0.538,0.7397 0.9906,1.6328 1.3933,2.43832 0.1394,0.27866 -0.1393,0.76633 0,1.04499 0.076,0.15215 0.4451,0.50309 0.3484,0.69666 -0.3968,0.79346 -1.0789,1.53121 -1.5675,2.26415 -0.2315,0.34721 -0.5656,0.36989 -0.8709,0.5225 -0.8213,0.41066 -1.4692,1.73423 -2.2641,2.26415 -0.2773,0.18485 -0.7634,0.38171 -1.045,0.5225 -0.06,0.0297 -0.7784,1.01919 -1.045,1.21916 -0.4145,0.31087 -1.1627,1.01675 -1.5675,1.21915 -0.052,0.026 -0.1331,-0.041 -0.1741,0 -0.1836,0.18359 -0.1648,0.51308 -0.3484,0.69667 -0.2835,0.28353 -1.087,0.51285 -1.3933,0.69666 -0.5709,0.34252 -0.9875,1.04532 -1.5675,1.39332 -0.1574,0.0945 -0.3927,0.0444 -0.5225,0.17417 -0.1298,0.12981 -0.064,0.37562 -0.1742,0.52249 -0.078,0.10386 -0.2565,0.0824 -0.3483,0.17417 -0.092,0.0918 -0.082,0.25654 -0.1741,0.34833 -0.3556,0.35552 -0.8365,0.40966 -1.2192,0.69666 -0.4923,0.36921 -0.8746,0.87333 -1.3933,1.21916 -0.5635,0.37564 -1.0988,0.40209 -1.5675,0.87083 -0.2894,0.28933 -0.4756,0.39075 -0.8708,0.52249 -0.1102,0.0367 -0.2663,-0.0821 -0.3484,0 -0.3603,0.36036 0.5507,-0.0141 -0.1741,0.34833 -0.052,0.026 -0.1742,-0.0581 -0.1742,0 0,0.23266 2.2754,-0.53376 2.4383,-0.69666 0.5614,-0.56137 -1.1468,0.66541 -1.3933,0.87083 -0.1,0.0831 -0.058,0.29028 -0.1742,0.34833 -0.1558,0.0779 -0.3535,-0.0422 -0.5225,0 -0.2816,0.0704 -0.437,0.39268 -0.6966,0.5225 -0.5297,0.26481 -1.2528,0.37075 -1.7417,0.69666 -0.048,0.0322 0.052,0.1482 0,0.17416 -0.5518,0.27593 -0.1621,-0.36041 -0.6967,0.17417 -0.041,0.0411 0.041,0.13311 0,0.17417 -0.1376,0.13763 -0.8632,-0.0454 -1.0449,0 -0.4496,0.11237 -0.5877,0.62044 -1.045,0.69666 -0.2291,0.0382 -0.4676,-0.0382 -0.6967,0 -0.4064,0.0677 -0.8171,0.42198 -1.2192,0.52249 -0.2816,0.0704 -0.5862,-0.0569 -0.8708,0 -0.5645,0.11291 -1.0535,0.69952 -1.5675,0.87083 -0.2203,0.0734 -0.4763,-0.0734 -0.6966,0 -0.285,0.095 -0.5888,0.38147 -0.8709,0.5225 -0.4375,0.21878 -1.1298,0.17328 -1.5675,0.34833 -0.4699,0.18797 -0.7492,0.50869 -1.2191,0.69666 -0.2412,0.0965 -0.7824,0 -1.045,0 -0.894,0 -4.5279,-0.17429 -5.0508,0 -0.078,0.026 -0.094,0.15425 -0.1742,0.17417 -0.1689,0.0422 -0.3507,-0.0286 -0.5225,0 -0.5259,0.0876 -1.0542,0.37584 -1.5675,0.52249 -1.3473,0.38496 -0.044,0.0243 -1.3933,0.17417 -0.8287,0.0921 -1.6096,0.43042 -2.4383,0.52249 -1.943,0.21589 -4.9669,0 -6.9666,0 -1.7204,0 -5.9031,0.29648 -7.315,-0.17416 -0.855,-0.28502 -1.6463,-0.82316 -2.4383,-1.21916 -0.2188,-0.10939 -0.6532,-0.0291 -0.8708,-0.17416 -0.2614,-0.17423 -1.1489,-0.94724 -1.3933,-1.045 -0.1617,-0.0647 -0.3608,0.0647 -0.5225,0 -0.1525,-0.061 -0.217,-0.24981 -0.3484,-0.34833 -0.3193,-0.23952 -0.4398,-0.0915 -0.6966,-0.34833"
       id="path9" /><path
       style="fill:#002e57;fill-opacity:1;stroke:#002e57;stroke-width:2;stroke-linecap:round;stroke-linejoin:round;stroke-miterlimit:11.4;stroke-dasharray:none;stroke-opacity:1;paint-order:normal"
       d="m 1758.5486,76.981132 c -1.8377,3.01337 -1.3933,6.694055 -1.3933,10.101597 0,1.183758 -0.2227,2.892441 0,4.005805 0.084,0.421668 0.264,0.797491 0.3483,1.219158 0.1,0.498872 -0.1232,1.074733 0,1.56749 0.085,0.341728 0.2629,0.354933 0.3484,0.696661 0.1092,0.437122 -0.1093,0.956203 0,1.393324 0.1301,0.520433 0.2977,1.117976 0.5225,1.567489 0.254,0.508133 -0.1814,1.371713 0,1.91582 0.082,0.246307 0.3056,0.440564 0.3483,0.696664 0.048,0.28632 -0.092,0.59545 0,0.87083 0.1356,0.40672 0.2352,0.82323 0.3483,1.21915 0.025,0.0858 0.3619,1.15239 0.5225,1.39333 0.091,0.13662 0.2749,0.20146 0.3483,0.34833 0.1503,0.3005 0.053,0.62868 0.1742,0.87083 0.1506,0.30108 0.2932,0.39089 0.5225,0.69666 0.2128,0.28375 0.2436,0.73063 0.3483,1.04499 0.1199,0.35959 0.3758,0.40316 0.5225,0.69666 0.158,0.31597 0.2418,0.72519 0.3484,1.04499 0.13,0.39008 0.6071,0.77638 0.6966,1.045 0.077,0.23147 -0.1105,0.64969 0,0.87082 0.2217,0.44332 0.4796,0.95923 0.6967,1.39333 0.2126,0.42531 0.5587,0.55872 0.8708,0.87083 0.041,0.041 -0.041,0.13311 0,0.17416 0.148,0.14801 0.3745,0.20032 0.5225,0.34833 0.041,0.0411 0,0.11611 0,0.17417 0.1161,0.11611 0.2117,0.25724 0.3483,0.34833 0.048,0.0322 0.1482,-0.0519 0.1742,0 0.052,0.10385 -0.064,0.25172 0,0.34833 0.1347,0.20199 0.7308,0.38246 0.8708,0.5225 0.3354,0.33536 0.677,1.00558 0.8709,1.39332 0.1741,0.34833 0.6966,0.5225 0.8708,0.87083 0.4668,0.93359 1.2422,2.06272 1.9158,2.96081 0.1478,0.19704 0.4124,0.30219 0.5225,0.5225 0.1928,0.38558 0.507,0.83986 0.6967,1.21915 0.1977,0.39541 0.7816,0.69381 1.045,1.045 0.2782,0.37097 0.419,0.84904 0.6966,1.21915 0.8079,1.07715 0.036,0.10517 0.5225,0.34834 0.3518,0.1759 0.4548,0.62897 0.6967,0.87082 0.087,0.0871 0.2612,0.0871 0.3483,0.17417 0.041,0.041 -0.041,0.13311 0,0.17416 0.082,0.0821 0.2445,-0.0519 0.3483,0 0.2986,0.14931 0.072,0.33789 0.3484,0.5225 0.5925,0.39499 1.1491,0.82417 1.7416,1.21916 0.5359,0.35726 0.8575,1.03606 1.3934,1.39332 0.8768,0.58456 1.7783,1.18555 2.6124,1.74166 1.0873,0.72483 0.2903,0.0581 1.2192,0.52249 0.1469,0.0734 0.2015,0.2749 0.3483,0.34833 0.3181,0.15905 0.6849,0.34245 1.045,0.5225 0.2058,0.10288 0.3304,0.39441 0.5225,0.5225 0.3396,0.22639 0.6924,0.4851 1.045,0.69666 0.543,0.32579 1.1961,0.36934 1.7417,0.69666 0.05,0.0299 -0.041,0.13311 0,0.17417 0.041,0.041 0.1222,-0.026 0.1741,0 0.3864,0.19318 0.6899,0.63408 1.045,0.87082 0.1304,0.0869 0.5686,-0.0512 0.6967,0 0.3962,0.15848 1.6143,0.96962 1.9158,1.045 0.3005,0.0751 0.7433,-0.10058 1.045,0 0.7408,0.24694 1.4956,0.44047 2.2641,0.69666 0.2609,0.0869 0.6037,-0.0668 0.8709,0 1.0553,0.26384 2.2377,0.24802 3.135,0.69666 0.2183,0.10919 3.1362,0.0432 3.3091,0 1.1371,-0.28426 -0.658,-0.0935 0.8708,-0.34833 0.1718,-0.0286 0.3624,0.0686 0.5225,0 0.2668,-0.11435 0.4371,-0.39268 0.6967,-0.5225 0.5402,-0.27013 1.2097,-0.37752 1.7416,-0.69666 0.1408,-0.0845 0.2201,-0.24575 0.3484,-0.34833 -0.033,-0.8998 0.4806,-0.20431 0.6966,-0.34833 0.9553,-0.63688 2.0516,-1.6936 2.7867,-2.61248 1.0357,-1.29466 1.4535,-2.81329 1.9158,-4.35414 0.187,-0.6234 0.5991,-1.26521 0.6967,-1.91582 0.2215,-1.47686 0.5267,-4.83847 0.3483,-6.44412 -0.2151,-1.93607 -1.1805,-3.38338 -2.09,-5.0508 -1.8422,-3.37744 0.5694,0.96455 -0.8708,-1.91582 -0.474,-0.94799 -1.0935,-1.83866 -1.5675,-2.78665 -0.1398,-0.27963 -0.1749,-0.6107 -0.3483,-0.87082 -0.1822,-0.27326 -0.5145,-0.42341 -0.6967,-0.69667 -0.5633,-0.845 -0.801,-1.95741 -1.3933,-2.78664 -0.7823,-1.09519 -1.8626,-2.01009 -2.6125,-3.13498 -0.5926,-0.8889 -1.1516,-1.84821 -1.9158,-2.612484 -1.434,-1.433939 -3.0987,-2.605241 -4.7025,-3.83164 -1.7658,-1.350292 -3.526,-2.74237 -5.225,-4.179971 -2.1349,-1.8065 -4.4736,-3.330746 -6.7924,-4.876633 -0.657,-0.438011 -1.2421,-0.981568 -1.9158,-1.393323 -0.3773,-0.230552 -0.8299,-0.312881 -1.2192,-0.522497 -1.2447,-0.670239 -2.4406,-1.534043 -3.6575,-2.264151 -2.0527,-1.231627 -4.1403,-2.418517 -6.2699,-3.483309 -0.5593,-0.27963 -1.1725,-0.437922 -1.7417,-0.696662 -1.1415,-0.518888 -2.2393,-1.256502 -3.4833,-1.567489 -0.4077,-0.101938 -0.966,0 -1.3933,0 -0.7637,0 -1.6883,-0.136366 -2.4383,0 -2.4007,0.436489 -0.7009,0.348331 -2.7867,0.348331 z"
       id="path10" /><path
       style="fill:#e0ecff;fill-opacity:1;stroke:#002e57;stroke-width:2;stroke-linecap:round;stroke-linejoin:round;stroke-miterlimit:11.4;stroke-dasharray:none;stroke-opacity:1;paint-order:normal"
       d="m 1794.775,84.296081 c 0.6967,0.406386 1.4116,0.783022 2.09,1.219159 0.4747,0.305123 0.6285,0.957058 0.8709,1.393323 0.8241,1.483461 0.5224,3.196513 0.5224,4.876633 0,0.523694 0.186,1.451002 0,1.91582 -0.274,0.685055 -0.8695,1.616701 -1.5674,1.91582 -1.5145,0.649045 -3.1429,0.774009 -4.7025,0.174166 -0.3635,-0.139803 -0.6728,-0.407966 -1.045,-0.522497 -0.3924,-0.120726 -0.8297,-0.04435 -1.2192,-0.174165 -1.0161,-0.338725 -2.2337,-1.45368 -2.6124,-2.438317 -0.6134,-1.594658 -0.768,-3.546597 -0.3484,-5.224963 0.1495,-0.598081 0.4906,-0.949192 0.6967,-1.567489 0.084,-0.252208 0.3365,-1.207384 0.5225,-1.393324 0.2628,-0.262856 0.5459,-0.516132 0.8708,-0.696662 0.4113,-0.228514 3.952,-0.318237 4.5283,-0.174165 0.471,0.117743 1.0088,0.465947 1.3933,0.696661 z"
       id="path12" /><path
       style="fill:#e0ecff;fill-opacity:1;stroke:#002e57;stroke-width:2;stroke-linecap:round;stroke-linejoin:round;stroke-miterlimit:11.4;stroke-dasharray:none;stroke-opacity:1;paint-order:normal"
       d="m 1835.7039,107.46009 c 0.8287,0.13805 3.7331,-0.4973 4.7025,-0.17417 0.3901,0.13005 0.5952,0.37507 0.8708,0.69666 0.7678,0.89573 0.7017,1.11136 1.3933,2.26415 0.085,0.14081 0.2749,0.20147 0.3484,0.34834 0.5097,1.01943 -0.098,0.37581 0.3483,1.04499 0.3175,0.47631 0.7531,0.97905 0.8708,1.56749 0.1132,0.56585 0.3673,2.03316 0.1742,2.61248 -0.1175,0.35256 -0.6494,0.47524 -0.8708,0.69666 -0.3464,0.34632 -0.576,0.95112 -1.045,1.21916 -0.2715,0.15511 -0.5976,0.1965 -0.8709,0.34833 -0.9394,0.52194 -1.7133,1.35386 -2.6124,1.91582 -0.2376,0.14851 -1.4018,-0.0291 -1.5675,-0.17417 -1.0836,-0.94812 -2.1074,-3.32519 -2.6125,-4.17997 -0.3668,-0.62078 -0.8104,-1.03782 -1.045,-1.74165 -0.037,-0.11015 0,-0.23222 0,-0.34833 -0.058,-0.23222 -0.09,-0.47254 -0.1742,-0.69666 -0.4026,-1.07376 -0.5225,-1.45069 -0.5225,-2.61249 0,-0.51773 -0.1146,-1.26039 0.1742,-1.74165 0.1175,-0.19583 1.4656,-1.21916 1.5675,-1.21916 0.296,0 0.59,0.26778 0.8708,0.17417 1.7668,-0.58894 0.6669,-0.87083 1.5675,-0.87083"
       id="path13" /><path
       style="fill:#e0ecff;fill-opacity:1;stroke:#002e57;stroke-width:2;stroke-linecap:round;stroke-linejoin:round;stroke-miterlimit:11.4;stroke-dasharray:none;stroke-opacity:1;paint-order:normal"
       id="path16"
       d="m 1786.3582,105.82862 c -0.063,0.63923 -0.1884,1.27121 -0.2874,1.90582 -0.099,0.77055 -0.2228,1.54938 -0.1921,2.32925 0.01,0.18619 0.03,0.37142 0.045,0.55714 0.053,0.24283 0.094,0.48898 0.1602,0.72851 0.241,0.86466 0.6681,1.7363 1.1588,2.4864 0.1138,0.17402 0.2408,0.33904 0.3613,0.50856 0.4155,0.50965 0.9029,1.01977 1.4578,1.38081 0.2451,0.15953 0.502,0.30164 0.7642,0.43119 0.5213,0.2575 0.8498,0.34104 1.397,0.51643 0.9581,0.27426 1.9484,0.38608 2.9406,0.43034 0.5527,0.0325 1.1004,-0.0248 1.6346,-0.17093 0.3024,-0.0827 0.5967,-0.19245 0.8952,-0.28857 1.0235,-0.30585 2.0432,-0.625 3.0702,-0.91916 0.6452,-0.13051 1.2287,-0.35975 1.7814,-0.72305 0.2897,-0.19041 0.4857,-0.3723 0.7431,-0.59452 0.3157,-0.25476 0.5425,-0.59953 0.8345,-0.87685 0.01,-0.005 0,0.0155 -0.01,0.0209 -0.031,0.0316 -0.066,0.0591 -0.098,0.0886 -0.086,0.0782 -0.193,0.0989 -0.2957,0.14234 0,0.002 0.01,0.005 0.012,0.005 0.028,8.5e-4 0.056,-10e-4 0.084,-0.002 0.039,-7.1e-4 0.078,-0.001 0.117,-0.002 0.2251,-0.002 0.449,-0.0141 0.6682,0.0435 -0.017,8.9e-4 -0.04,-0.0105 -0.05,0.003 -0.01,0.01 0.042,0.0269 0.03,0.0236 -0.056,-0.0155 -0.1915,-0.095 -0.171,-0.0402 0.015,0.0413 0.048,0.0741 0.069,0.11267 0.032,0.057 0.06,0.11587 0.09,0.17381 0.2564,0.57943 0.3745,1.20588 0.4725,1.82815 0.07,0.4906 0.077,0.98635 0.081,1.4809 -0.021,0.59499 0.031,1.18567 0.1243,1.77259 0.086,0.48858 0.2601,0.95303 0.4182,1.42088 0.2002,0.53977 0.3971,1.0814 0.6525,1.59846 0.1864,0.3773 0.3209,0.59934 0.5264,0.9566 0.4274,0.6697 0.8977,1.34136 1.5547,1.80756 0.1388,0.0985 0.2888,0.18017 0.4332,0.27026 0.2308,0.0871 0.4559,0.19118 0.6924,0.26141 0.3466,0.10294 0.8201,0.14895 1.177,0.17727 0.5478,0.0435 1.0987,0.0466 1.6478,0.0548 0.7987,0.004 1.5976,0.01 2.396,-0.0138 0.5817,-0.0213 1.1634,-0.0574 1.7373,-0.15909 0.4419,-0.0783 0.7011,-0.15077 1.1362,-0.25907 1.161,-0.27859 2.2446,-0.77697 3.3046,-1.31416 0.7951,-0.44247 1.5746,-0.91669 2.3091,-1.45452 0.3946,-0.30215 0.7855,-0.60904 1.1757,-0.91698 0.287,-0.2216 0.572,-0.44558 0.854,-0.6735 2.0777,-1.68087 -0.2994,-4.61927 -2.3771,-2.9384 v 0 c -0.2709,0.21933 -0.5455,0.43369 -0.821,0.64707 -0.3561,0.28222 -0.7142,0.56192 -1.074,0.83934 -0.5637,0.4197 -1.1727,0.77482 -1.7795,1.12782 -0.8069,0.41173 -1.627,0.80587 -2.513,1.01778 -0.3581,0.0911 -0.7211,0.19565 -1.0891,0.24141 -0.3247,0.0404 -0.6545,0.0458 -0.9807,0.0646 -0.7407,0.0245 -1.4822,0.0131 -2.2232,0.0124 -0.4526,-0.006 -0.9046,-0.0135 -1.3566,-0.0393 -0.097,-0.006 -0.194,-0.0135 -0.291,-0.0203 -0.044,-0.003 -0.1123,-0.0488 -0.1335,-0.01 -0.02,0.0366 0.064,0.0533 0.095,0.08 0,0.0443 0,0.021 -0.065,-0.0164 -0.1344,-0.073 -0.01,0.0314 -0.2182,-0.23466 -0.1939,-0.24302 -0.1275,-0.15766 -0.319,-0.44231 -0.091,-0.15726 -0.2805,-0.47725 -0.365,-0.64466 -0.2024,-0.40075 -0.3522,-0.823 -0.5103,-1.24217 -0.093,-0.27 -0.1938,-0.53733 -0.2655,-0.81414 -0.07,-0.39434 -0.089,-0.79053 -0.074,-1.19097 -0.01,-0.684 -0.025,-1.3692 -0.1291,-2.04669 -0.1766,-1.08349 -0.4205,-2.16434 -0.9437,-3.14019 -0.1026,-0.16811 -0.1967,-0.34168 -0.3077,-0.50433 -0.5574,-0.81653 -1.2255,-1.31876 -2.1816,-1.56316 -0.4911,-0.0911 -0.9842,-0.13821 -1.4842,-0.11573 -0.6511,0.015 -1.2967,0.0892 -1.8633,0.44228 -0.122,0.0861 -0.2494,0.16502 -0.3661,0.25818 -0.3137,0.25041 -0.5489,0.57832 -0.831,0.86032 -0.091,0.0823 -0.1874,0.15863 -0.2752,0.24434 -0.036,0.035 -0.041,0.0778 -0.094,0.0971 -0.2285,0.0827 -0.4772,0.10221 -0.7052,0.18488 -1.0663,0.30619 -2.1256,0.63586 -3.188,0.955 -0.147,0.0474 -0.2946,0.0932 -0.4411,0.14232 -0.3087,0.10344 -0.4211,0.17599 -0.7672,0.13833 -0.6668,-0.0269 -1.3335,-0.092 -1.9806,-0.26349 -0.5027,-0.14777 -0.2886,-0.0741 -0.7648,-0.25511 -0.074,-0.0283 -0.154,-0.046 -0.2228,-0.0859 -0.2605,-0.15116 -0.4893,-0.37329 -0.6909,-0.59334 -0.425,-0.56848 -0.7563,-1.19335 -0.9803,-1.86862 -0.086,-0.64797 0.039,-1.30078 0.1187,-1.94387 0.1048,-0.67237 0.235,-1.34215 0.3034,-2.01924 0.3315,-2.65189 -3.4189,-3.12068 -3.7504,-0.46879 z" /></g></svg>
